<?xml version="1.0" encoding="utf-8"?>
<!-- Generator: Adobe Illustrator 15.0.0, SVG Export Plug-In  -->
<!DOCTYPE svg PUBLIC "-//W3C//DTD SVG 1.1//EN" "http://www.w3.org/Graphics/SVG/1.1/DTD/svg11.dtd" [
	<!ENTITY ns_flows "http://ns.adobe.com/Flows/1.0/">
]>
<svg version="1.1"
	 xmlns="http://www.w3.org/2000/svg" xmlns:xlink="http://www.w3.org/1999/xlink" xmlns:a="http://ns.adobe.com/AdobeSVGViewerExtensions/3.0/"
	 x="0px" y="0px" width="12px" height="12px" viewBox="0 -0.5 12 12" enable-background="new 0 -0.5 12 12" xml:space="preserve">
<defs>
</defs>
<path fill="#FFFFFF" d="M11.031,5.293c0,0.265-0.105,0.52-0.293,0.708l-4.324,4.292c-0.391,0.39-1.023,0.39-1.414,0
	C4.609,9.902,4.609,9.269,5,8.878l2.615-2.585H1c-0.553,0-1-0.448-1-1c0-0.553,0.447-1,1-1h6.617L5,1.707
	C4.609,1.316,4.609,0.683,5,0.293C5.195,0.097,5.451,0,5.707,0s0.512,0.097,0.707,0.293l4.324,4.293
	C10.926,4.773,11.031,5.028,11.031,5.293"/>
</svg>
